<?xml version="1.0" encoding="UTF-8" standalone="no"?>
<!-- Created with Inkscape (http://www.inkscape.org/) -->

<svg
   version="1.1"
   id="svg2"
   xml:space="preserve"
   width="960"
   height="293.33334"
   viewBox="0 0 960 293.33334"
   sodipodi:docname="chemprop3.ai"
   xmlns:inkscape="http://www.inkscape.org/namespaces/inkscape"
   xmlns:sodipodi="http://sodipodi.sourceforge.net/DTD/sodipodi-0.dtd"
   xmlns="http://www.w3.org/2000/svg"
   xmlns:svg="http://www.w3.org/2000/svg"><defs
     id="defs6"><clipPath
       clipPathUnits="userSpaceOnUse"
       id="clipPath36"><path
         d="M 0,220 H 720 V 0 H 0 Z"
         id="path34" /></clipPath></defs><sodipodi:namedview
     id="namedview4"
     pagecolor="#ffffff"
     bordercolor="#666666"
     borderopacity="1.0"
     inkscape:pageshadow="2"
     inkscape:pageopacity="0.0"
     inkscape:pagecheckerboard="0" /><g
     id="g8"
     inkscape:groupmode="layer"
     inkscape:label="chemprop3"
     transform="matrix(1.3333333,0,0,-1.3333333,0,293.33333)"><text
       transform="matrix(1,0,0,-1,200,75.4248)"
       style="font-variant:normal;font-weight:100;font-stretch:normal;font-size:120px;font-family:'Lato Thin';-inkscape-font-specification:Lato-Thin;writing-mode:lr-tb;fill:#000000;fill-opacity:1;fill-rule:nonzero;stroke:none"
       id="text12"><tspan
         x="0 56.16 121.68 183.84 279.23999 344.832 382.73999 449.10001"
         y="0"
         sodipodi:role="line"
         id="tspan10">chemprop</tspan></text><g
       id="g14"
       transform="translate(100,209.5)"><path
         d="M 0,0 -86.603,-50 V -150 L 0,-200 l 86.603,50 v 100 z m 0,-5.773 81.603,-47.114 v -94.226 L 0,-194.227 l -81.603,47.114 v 94.226 z"
         style="fill:#000000;fill-opacity:1;fill-rule:nonzero;stroke:none"
         id="path16" /></g><g
       id="g18"
       transform="translate(30.718,150)"><path
         d="M 0,0 V -80"
         style="fill:none;stroke:#000000;stroke-width:5;stroke-linecap:butt;stroke-linejoin:miter;stroke-miterlimit:10;stroke-dasharray:none;stroke-opacity:1"
         id="path20" /></g><g
       id="g22"
       transform="translate(169.282,150)"><path
         d="M 0,0 -69.282,40"
         style="fill:none;stroke:#000000;stroke-width:5;stroke-linecap:butt;stroke-linejoin:miter;stroke-miterlimit:10;stroke-dasharray:none;stroke-opacity:1"
         id="path24" /></g><g
       id="g26"
       transform="translate(100,30)"><path
         d="M 0,0 69.282,40"
         style="fill:none;stroke:#000000;stroke-width:5;stroke-linecap:butt;stroke-linejoin:miter;stroke-miterlimit:10;stroke-dasharray:none;stroke-opacity:1"
         id="path28" /></g><g
       id="g30"><g
         id="g32"
         clip-path="url(#clipPath36)"><g
           id="g38"
           transform="translate(110,110)"><path
             d="m 0,0 c 0,-5.523 -4.477,-10 -10,-10 -5.523,0 -10,4.477 -10,10 0,5.523 4.477,10 10,10 C -4.477,10 0,5.523 0,0"
             style="fill:#000000;fill-opacity:1;fill-rule:nonzero;stroke:none"
             id="path40" /></g><g
           id="g42"
           transform="translate(62.3647,43.8559)"><path
             d="M 0,0 C -3.826,2.209 -5.137,7.102 -2.928,10.928 -0.719,14.755 4.174,16.066 8,13.856 11.826,11.647 13.137,6.755 10.928,2.928 8.719,-0.898 3.826,-2.209 0,0"
             style="fill:#000000;fill-opacity:1;fill-rule:nonzero;stroke:none"
             id="path44" /></g><g
           id="g46"
           transform="translate(98.5282,98.1316)"><path
             d="m 0,0 c -0.016,-3.784 -0.18,-7.566 -0.478,-11.362 -0.316,-3.791 -0.858,-7.607 -1.82,-11.354 -0.472,-1.875 -1.035,-3.73 -1.641,-5.566 -0.604,-1.851 -1.224,-3.648 -2.048,-5.433 -1.664,-3.605 -4.276,-6.927 -7.536,-9.294 l -2.059,2.362 c 2.454,2.581 4.271,5.556 5.865,8.74 0.783,1.626 1.706,3.272 2.478,4.933 0.773,1.671 1.495,3.366 2.079,5.112 2.409,6.96 3.615,14.435 4.761,21.894 z"
             style="fill:#000000;fill-opacity:1;fill-rule:nonzero;stroke:none"
             id="path48" /></g><g
           id="g50"
           transform="translate(84.3284,63.932)"><path
             d="M 0,0 1.163,-6.332 6.528,-9.89 -8.457,-12.683 Z"
             style="fill:#000000;fill-opacity:1;fill-rule:nonzero;stroke:none"
             id="path52" /></g><g
           id="g54"
           transform="translate(57.9624,54.3077)"><path
             d="m 0,0 c -2.017,5.179 -3.532,10.593 -4.286,16.184 -0.705,5.582 -0.553,11.399 1.103,16.99 0.848,2.78 2.056,5.497 3.76,7.967 0.844,1.239 1.814,2.415 2.947,3.475 1.107,0.999 2.235,1.915 3.487,2.736 2.467,1.654 5.343,2.844 8.311,3.377 1.482,0.275 2.982,0.382 4.457,0.348 1.475,-0.015 2.925,-0.172 4.34,-0.418 L 23.885,47.976 C 22.54,47.966 21.215,47.904 19.923,47.768 18.63,47.614 17.371,47.379 16.147,47.056 13.714,46.352 11.431,45.28 9.287,43.864 8.202,43.194 7.15,42.389 6.138,41.606 5.182,40.845 4.276,39.962 3.469,38.976 1.854,37.003 0.587,34.686 -0.337,32.221 -2.187,27.265 -2.695,21.78 -2.421,16.35 -2.171,10.896 -1.076,5.463 0.38,0.126 Z"
             style="fill:#000000;fill-opacity:1;fill-rule:nonzero;stroke:none"
             id="path56" /></g><g
           id="g58"
           transform="translate(76.6519,98.2939)"><path
             d="M 0,0 3.339,5.504 1.696,11.728 14.749,3.854 Z"
             style="fill:#000000;fill-opacity:1;fill-rule:nonzero;stroke:none"
             id="path60" /></g><g
           id="g62"
           transform="translate(61.8999,175.339)"><path
             d="M 0,0 C 3.826,2.209 8.719,0.898 10.928,-2.928 13.137,-6.755 11.826,-11.647 8,-13.856 4.174,-16.066 -0.719,-14.755 -2.928,-10.928 -5.137,-7.102 -3.826,-2.209 0,0"
             style="fill:#000000;fill-opacity:1;fill-rule:nonzero;stroke:none"
             id="path64" /></g><g
           id="g66"
           transform="translate(90.8223,116.8827)"><path
             d="m 0,0 c -3.269,1.906 -6.462,3.939 -9.601,6.095 -3.125,2.169 -6.158,4.546 -8.923,7.253 -1.387,1.346 -2.712,2.761 -4,4.204 -1.3,1.448 -2.547,2.884 -3.681,4.49 -2.289,3.244 -3.861,7.167 -4.28,11.173 l 3.074,0.603 c 1.009,-3.416 2.676,-6.477 4.637,-9.45 1.017,-1.49 1.981,-3.112 3.033,-4.612 1.061,-1.505 2.168,-2.978 3.388,-4.357 C -11.53,9.833 -5.659,5.051 0.227,0.329 Z"
             style="fill:#000000;fill-opacity:1;fill-rule:nonzero;stroke:none"
             id="path68" /></g><g
           id="g70"
           transform="translate(68.3045,146.2799)"><path
             d="m 0,0 -6.065,2.158 -5.764,-2.867 5.074,14.375 z"
             style="fill:#000000;fill-opacity:1;fill-rule:nonzero;stroke:none"
             id="path72" /></g><g
           id="g74"
           transform="translate(73.1526,173.9256)"><path
             d="m 0,0 c 5.494,-0.843 10.939,-2.238 16.159,-4.381 5.187,-2.18 10.148,-5.22 14.162,-9.45 1.984,-2.123 3.732,-4.528 5.02,-7.239 0.651,-1.35 1.184,-2.779 1.535,-4.29 0.312,-1.458 0.541,-2.893 0.626,-4.388 0.199,-2.963 -0.208,-6.048 -1.231,-8.885 -0.502,-1.422 -1.159,-2.774 -1.926,-4.034 -0.751,-1.27 -1.612,-2.448 -2.533,-3.55 l -2.206,1.544 c 0.664,1.17 1.273,2.348 1.801,3.536 0.513,1.196 0.939,2.404 1.271,3.625 0.607,2.46 0.821,4.973 0.666,7.537 -0.038,1.274 -0.209,2.588 -0.381,3.856 -0.181,1.209 -0.493,2.435 -0.943,3.627 -0.901,2.385 -2.274,4.641 -3.947,6.674 -3.367,4.08 -7.864,7.262 -12.703,9.739 -4.848,2.511 -10.101,4.279 -15.45,5.687 z"
             style="fill:#000000;fill-opacity:1;fill-rule:nonzero;stroke:none"
             id="path76" /></g><g
           id="g78"
           transform="translate(101.901,135.747)"><path
             d="M 0,0 3.097,-5.644 9.309,-7.333 -4.037,-14.7 Z"
             style="fill:#000000;fill-opacity:1;fill-rule:nonzero;stroke:none"
             id="path80" /></g><g
           id="g82"
           transform="translate(176,110)"><path
             d="m 0,0 c 0,-4.418 -3.582,-8 -8,-8 -4.418,0 -8,3.582 -8,8 0,4.418 3.582,8 8,8 4.418,0 8,-3.582 8,-8"
             style="fill:#000000;fill-opacity:1;fill-rule:nonzero;stroke:none"
             id="path84" /></g><g
           id="g86"
           transform="translate(110.9141,114.1806)"><path
             d="m 0,0 c 3.285,1.878 6.642,3.627 10.079,5.267 3.441,1.622 7.016,3.06 10.743,4.101 1.859,0.529 3.747,0.968 5.641,1.362 1.904,0.402 3.771,0.764 5.728,0.943 3.955,0.361 8.138,-0.24 11.817,-1.88 L 42.992,6.829 C 39.53,7.663 36.045,7.75 32.491,7.539 30.691,7.403 28.805,7.38 26.98,7.218 25.146,7.052 23.317,6.829 21.513,6.462 14.281,5.069 7.204,2.376 0.172,-0.361 Z"
             style="fill:#000000;fill-opacity:1;fill-rule:nonzero;stroke:none"
             id="path88" /></g><g
           id="g90"
           transform="translate(147.6318,118.983)"><path
             d="M 0,0 4.902,4.173 5.3,10.599 15.212,-0.983 Z"
             style="fill:#000000;fill-opacity:1;fill-rule:nonzero;stroke:none"
             id="path92" /></g><g
           id="g94"
           transform="translate(169.1496,100.9616)"><path
             d="m 0,0 c -3.477,-4.337 -7.408,-8.355 -11.873,-11.804 -4.482,-3.402 -9.596,-6.178 -15.265,-7.539 -2.831,-0.656 -5.788,-0.968 -8.78,-0.728 -1.495,0.111 -2.999,0.364 -4.482,0.815 -1.419,0.46 -2.776,0.978 -4.114,1.652 -2.666,1.309 -5.134,3.205 -7.079,5.509 -0.98,1.145 -1.822,2.391 -2.53,3.685 -0.725,1.285 -1.314,2.62 -1.808,3.968 l 2.44,1.139 c 0.682,-1.16 1.397,-2.276 2.162,-3.327 0.779,-1.043 1.612,-2.016 2.504,-2.914 1.826,-1.756 3.896,-3.197 6.194,-4.346 1.123,-0.603 2.346,-1.112 3.53,-1.597 1.137,-0.448 2.355,-0.791 3.612,-0.997 2.517,-0.412 5.157,-0.351 7.754,0.081 5.216,0.876 10.22,3.179 14.785,6.132 4.599,2.943 8.757,6.608 12.651,10.537 z"
             style="fill:#000000;fill-opacity:1;fill-rule:nonzero;stroke:none"
             id="path96" /></g><g
           id="g98"
           transform="translate(121.7118,95.1541)"><path
             d="m 0,0 -6.436,0.14 -4.569,-4.535 0.293,15.241 z"
             style="fill:#000000;fill-opacity:1;fill-rule:nonzero;stroke:none"
             id="path100" /></g></g></g></g></svg>
