<?xml version="1.0" encoding="utf-8"?>
<!-- Generator: Adobe Illustrator 27.2.0, SVG Export Plug-In . SVG Version: 6.00 Build 0)  -->
<svg version="1.1" id="Layer_1" xmlns="http://www.w3.org/2000/svg" xmlns:xlink="http://www.w3.org/1999/xlink" x="0px" y="0px"
	 viewBox="0 0 720 220" style="enable-background:new 0 0 720 220;" xml:space="preserve">
<style type="text/css">
	.st0{fill:none;}
	.st1{fill:none;stroke:#ffffff;stroke-width:5;stroke-miterlimit:10;}
	.st2{fill:none;}
	.st3{fill:#ffffff;}
</style>
<rect class="st0" width="720" height="220"/>
<g>
	<path class="st3" d="M250.158,142.415c-2.76,1.44-8.88,3.36-16.68,3.36c-17.519,0-28.919-11.88-28.919-29.639
		c0-17.88,12.24-30.839,31.199-30.839c6.239,0,11.759,1.56,14.639,3l-2.4,8.159c-2.52-1.439-6.479-2.76-12.239-2.76
		c-13.32,0-20.52,9.84-20.52,21.959c0,13.439,8.64,21.72,20.159,21.72c6,0,9.96-1.561,12.959-2.881L250.158,142.415z"/>
	<path class="st3" d="M262.52,59.379h10.56v36.238h0.24c1.68-3,4.32-5.64,7.56-7.439c3.12-1.8,6.839-3,10.799-3c7.8,0,20.279,4.8,20.279,24.839
		v34.559h-10.559v-33.358c0-9.36-3.48-17.279-13.439-17.279c-6.84,0-12.24,4.8-14.16,10.56c-0.6,1.439-0.72,3-0.72,5.039v35.039
		h-10.56V59.379z"/>
	<path class="st3" d="M334.999,117.456c0.239,14.279,9.359,20.159,19.919,20.159c7.56,0,12.119-1.319,16.079-3l1.8,7.56
		c-3.72,1.681-10.079,3.601-19.318,3.601c-17.88,0-28.56-11.76-28.56-29.279c0-17.519,10.319-31.318,27.239-31.318
		c18.959,0,23.999,16.679,23.999,27.358c0,2.16-0.24,3.84-0.36,4.92H334.999z M365.957,109.896c0.12-6.72-2.76-17.159-14.639-17.159
		c-10.68,0-15.359,9.84-16.199,17.159H365.957z"/>
	<path class="st3" d="M389.237,102.217c0-6-0.12-10.919-0.48-15.719h9.24l0.479,9.36h0.36c3.239-5.521,8.64-10.68,18.239-10.68
		c7.92,0,13.919,4.8,16.439,11.64h0.24c1.8-3.24,4.079-5.76,6.479-7.56c3.479-2.64,7.319-4.08,12.839-4.08
		c7.68,0,19.08,5.04,19.08,25.199v34.198h-10.32v-32.879c0-11.159-4.08-17.879-12.6-17.879c-5.999,0-10.68,4.439-12.479,9.6
		c-0.479,1.439-0.84,3.359-0.84,5.279v35.879h-10.319v-34.799c0-9.239-4.08-15.959-12.119-15.959c-6.6,0-11.4,5.279-13.08,10.56
		c-0.6,1.56-0.84,3.359-0.84,5.159v35.039h-10.319V102.217z"/>
	<path class="st3" d="M489.317,105.457c0-7.44-0.24-13.439-0.48-18.959h9.479l0.48,9.959h0.24c4.319-7.079,11.159-11.279,20.639-11.279
		c14.04,0,24.6,11.88,24.6,29.519c0,20.879-12.72,31.199-26.399,31.199c-7.68,0-14.399-3.36-17.879-9.12h-0.24v31.559h-10.439
		V105.457z M499.757,120.937c0,1.56,0.24,3,0.479,4.319c1.92,7.319,8.28,12.359,15.84,12.359c11.159,0,17.64-9.119,17.64-22.438
		c0-11.64-6.12-21.6-17.279-21.6c-7.2,0-13.92,5.16-15.96,13.08c-0.359,1.319-0.72,2.879-0.72,4.319V120.937z"/>
	<path class="st3" d="M557.596,104.617c0-6.84-0.12-12.72-0.48-18.12h9.24l0.359,11.4h0.48c2.64-7.8,9-12.72,16.079-12.72
		c1.2,0,2.04,0.12,3,0.36v9.959c-1.08-0.24-2.16-0.359-3.6-0.359c-7.44,0-12.72,5.64-14.159,13.559c-0.24,1.44-0.48,3.12-0.48,4.92
		v30.959h-10.439V104.617z"/>
	<path class="st3" d="M648.193,115.057c0,21.479-14.879,30.839-28.919,30.839c-15.719,0-27.839-11.52-27.839-29.879
		c0-19.439,12.72-30.839,28.799-30.839C636.914,85.178,648.193,97.297,648.193,115.057z M602.115,115.656
		c0,12.72,7.32,22.319,17.64,22.319c10.079,0,17.639-9.479,17.639-22.56c0-9.839-4.919-22.318-17.399-22.318
		C607.516,93.098,602.115,104.617,602.115,115.656z"/>
	<path class="st3" d="M661.516,105.457c0-7.44-0.24-13.439-0.48-18.959h9.48l0.479,9.959h0.24c4.319-7.079,11.159-11.279,20.639-11.279
		c14.04,0,24.6,11.88,24.6,29.519c0,20.879-12.72,31.199-26.399,31.199c-7.68,0-14.399-3.36-17.879-9.12h-0.24v31.559h-10.439
		V105.457z M671.955,120.937c0,1.56,0.24,3,0.48,4.319c1.92,7.319,8.279,12.359,15.839,12.359c11.159,0,17.64-9.119,17.64-22.438
		c0-11.64-6.12-21.6-17.279-21.6c-7.2,0-13.92,5.16-15.96,13.08c-0.359,1.319-0.72,2.879-0.72,4.319V120.937z"/>
</g>
<g>
	<path class="st3" d="M100,16.273l81.603,47.113v94.227L100,204.727l-81.603-47.113V63.387L100,16.273 M100,10.5l-86.603,50v100l86.603,50
		l86.603-50v-100L100,10.5L100,10.5z"/>
</g>
<line class="st1" x1="30.718" y1="70" x2="30.718" y2="150"/>
<line class="st1" x1="169.282" y1="70" x2="100" y2="30"/>
<path class="st1" d="M169.282,70"/>
<line class="st1" x1="100" y1="190" x2="169.282" y2="150"/>
<g>
	<circle class="st3" cx="100" cy="110" r="10"/>
</g>
<g>
	<g>
		<g>
			<g>
				<circle class="st3" cx="66.365" cy="169.216" r="8"/>
			</g>
			<g>
				<g>
					<path class="st3" d="M98.528,121.868c-0.016,3.784-0.18,7.566-0.478,11.362c-0.316,3.791-0.857,7.606-1.82,11.354
						c-0.472,1.875-1.035,3.729-1.641,5.566c-0.604,1.85-1.224,3.648-2.048,5.433c-1.665,3.605-4.276,6.927-7.536,9.294
						l-2.059-2.361c2.453-2.582,4.271-5.556,5.865-8.74c0.782-1.626,1.705-3.272,2.478-4.933c0.773-1.672,1.495-3.367,2.079-5.113
						c2.409-6.96,3.615-14.435,4.761-21.894L98.528,121.868z"/>
					<g>
						<polygon class="st3" points="84.328,156.068 85.492,162.399 90.857,165.957 75.871,168.751 						"/>
					</g>
				</g>
			</g>
			<g>
				<g>
					<path class="st3" d="M57.962,165.692c-2.017-5.179-3.532-10.593-4.286-16.184c-0.706-5.582-0.553-11.399,1.103-16.99
						c0.847-2.78,2.056-5.497,3.76-7.967c0.844-1.239,1.814-2.415,2.947-3.475c1.108-0.999,2.235-1.915,3.487-2.736
						c2.467-1.654,5.342-2.844,8.311-3.377c1.482-0.276,2.982-0.382,4.457-0.348c1.475,0.015,2.926,0.172,4.341,0.418l-0.234,2.683
						c-1.345,0.01-2.669,0.072-3.962,0.208c-1.292,0.154-2.552,0.389-3.776,0.712c-2.433,0.704-4.716,1.776-6.86,3.192
						c-1.084,0.671-2.136,1.475-3.148,2.258c-0.956,0.761-1.862,1.645-2.67,2.63c-1.615,1.973-2.882,4.29-3.806,6.756
						c-1.85,4.956-2.357,10.441-2.083,15.87c0.249,5.454,1.345,10.887,2.8,16.224L57.962,165.692z"/>
					<g>
						<polygon class="st3" points="76.652,121.706 79.991,116.202 78.348,109.978 91.401,117.852 						"/>
					</g>
				</g>
			</g>
		</g>
	</g>
	<g>
		<g>
			<g>
				<circle class="st3" cx="65.9" cy="51.589" r="8"/>
			</g>
			<g>
				<g>
					<path class="st3" d="M90.822,103.117c-3.269-1.906-6.462-3.939-9.601-6.095c-3.125-2.169-6.159-4.546-8.923-7.253
						c-1.388-1.346-2.713-2.761-4-4.204c-1.301-1.448-2.547-2.884-3.681-4.49c-2.29-3.244-3.861-7.167-4.28-11.173l3.075-0.602
						c1.009,3.415,2.676,6.477,4.636,9.449c1.017,1.491,1.981,3.113,3.033,4.612c1.061,1.505,2.168,2.978,3.388,4.357
						c4.823,5.566,10.694,10.348,16.58,15.07L90.822,103.117z"/>
					<g>
						<polygon class="st3" points="68.304,73.72 62.239,71.562 56.476,74.429 61.55,60.054 						"/>
					</g>
				</g>
			</g>
			<g>
				<g>
					<path class="st3" d="M73.153,46.074c5.494,0.843,10.939,2.238,16.159,4.381c5.187,2.18,10.148,5.221,14.162,9.45
						c1.984,2.124,3.732,4.529,5.02,7.239c0.651,1.35,1.185,2.779,1.536,4.29c0.311,1.459,0.541,2.893,0.626,4.388
						c0.199,2.963-0.208,6.048-1.231,8.886c-0.502,1.421-1.16,2.774-1.927,4.034c-0.751,1.27-1.612,2.448-2.532,3.55l-2.206-1.544
						c0.664-1.17,1.273-2.348,1.801-3.535c0.513-1.196,0.939-2.404,1.271-3.626c0.607-2.459,0.82-4.972,0.666-7.537
						c-0.039-1.274-0.21-2.588-0.382-3.855c-0.181-1.209-0.493-2.435-0.943-3.627c-0.901-2.385-2.274-4.641-3.948-6.674
						c-3.367-4.08-7.863-7.262-12.703-9.739c-4.848-2.511-10.101-4.279-15.45-5.687L73.153,46.074z"/>
					<g>
						<polygon class="st3" points="101.901,84.253 104.998,89.897 111.21,91.586 97.864,98.953 						"/>
					</g>
				</g>
			</g>
		</g>
	</g>
	<g>
		<g>
			<g>
				<circle class="st3" cx="168" cy="110" r="8"/>
			</g>
			<g>
				<g>
					<path class="st3" d="M110.914,105.819c3.285-1.878,6.642-3.627,10.079-5.267c3.441-1.622,7.016-3.061,10.743-4.101
						c1.859-0.529,3.747-0.969,5.641-1.362c1.904-0.402,3.771-0.764,5.729-0.943c3.954-0.361,8.137,0.239,11.816,1.88l-1.016,2.964
						c-3.462-0.834-6.947-0.921-10.502-0.709c-1.8,0.136-3.686,0.159-5.511,0.321c-1.834,0.166-3.663,0.389-5.467,0.756
						c-7.232,1.394-14.309,4.087-21.341,6.824L110.914,105.819z"/>
					<g>
						<polygon class="st3" points="147.632,101.017 152.533,96.844 152.932,90.418 162.844,102 						"/>
					</g>
				</g>
			</g>
			<g>
				<g>
					<path class="st3" d="M169.15,119.038c-3.477,4.337-7.408,8.355-11.873,11.804c-4.481,3.402-9.596,6.178-15.265,7.54
						c-2.831,0.656-5.788,0.968-8.78,0.728c-1.495-0.111-2.999-0.364-4.483-0.815c-1.419-0.46-2.776-0.978-4.113-1.652
						c-2.666-1.309-5.134-3.205-7.08-5.509c-0.98-1.146-1.822-2.391-2.53-3.685c-0.725-1.285-1.314-2.62-1.808-3.968l2.441-1.139
						c0.681,1.16,1.397,2.276,2.161,3.327c0.78,1.042,1.612,2.016,2.504,2.914c1.827,1.755,3.896,3.197,6.194,4.345
						c1.123,0.604,2.346,1.112,3.53,1.597c1.138,0.448,2.355,0.791,3.612,0.997c2.517,0.412,5.157,0.351,7.754-0.082
						c5.217-0.876,10.22-3.179,14.786-6.131c4.599-2.943,8.756-6.608,12.65-10.537L169.15,119.038z"/>
					<g>
						<polygon class="st3" points="121.712,124.846 115.276,124.706 110.707,129.241 111,114 						"/>
					</g>
				</g>
			</g>
		</g>
	</g>
</g>
<g>
	<rect x="562.958" y="-54.813" class="st2" width="57.131" height="7.223"/>
</g>
<rect x="779.989" y="-9.503" class="st0" width="16.417" height="6.567"/>
<g>
</g>
<g>
</g>
<g>
</g>
<g>
</g>
<g>
</g>
<g>
</g>
<g>
</g>
<g>
</g>
<g>
</g>
<g>
</g>
<g>
</g>
<g>
</g>
<g>
</g>
<g>
</g>
<g>
</g>
<g>
</g>
</svg>
